<?xml version="1.0" encoding="UTF-8" standalone="no"?>
<svg
   viewBox="0 0 100 100"
   version="1.1"
   id="svg5"
   sodipodi:docname="favicon.svg"
   inkscape:version="1.4.2 (f4327f4, 2025-05-13)"
   xmlns:inkscape="http://www.inkscape.org/namespaces/inkscape"
   xmlns:sodipodi="http://sodipodi.sourceforge.net/DTD/sodipodi-0.dtd"
   xmlns="http://www.w3.org/2000/svg"
   xmlns:svg="http://www.w3.org/2000/svg">
  <sodipodi:namedview
     id="namedview5"
     pagecolor="#ffffff"
     bordercolor="#000000"
     borderopacity="0.25"
     inkscape:showpageshadow="2"
     inkscape:pageopacity="0.0"
     inkscape:pagecheckerboard="0"
     inkscape:deskcolor="#d1d1d1"
     inkscape:zoom="1.4265879"
     inkscape:cx="164.37823"
     inkscape:cy="170.68699"
     inkscape:window-width="1920"
     inkscape:window-height="1009"
     inkscape:window-x="-8"
     inkscape:window-y="-8"
     inkscape:window-maximized="1"
     inkscape:current-layer="svg5" />
  <defs
     id="defs4">
    <linearGradient
       id="bg"
       x1="0"
       y1="0"
       x2="0"
       y2="1">
      <stop
         offset="0"
         stop-color="#0a3661"
         id="stop1" />
      <stop
         offset="0.62"
         stop-color="#0a3661"
         id="stop2" />
      <stop
         offset="0.62"
         stop-color="#799f18"
         id="stop3" />
      <stop
         offset="1"
         stop-color="#799f18"
         id="stop4" />
    </linearGradient>
    <clipPath
       clipPathUnits="userSpaceOnUse"
       id="clipPath436">
      <path
         d="m 51.22656,132.18895 h 79.18262 V 52.56836 H 51.22656 Z"
         id="path434" />
    </clipPath>
    <clipPath
       clipPathUnits="userSpaceOnUse"
       id="clipPath464">
      <path
         d="M 11.44336,110.20459 H 58.4668 V 45.19531 H 11.44336 Z"
         id="path462" />
    </clipPath>
  </defs>
  <!-- Sparkle/star from original logo -->
  <!-- Window pane cross lines -->
  <g
     id="g5"
     transform="matrix(0.88266295,0,0,0.88266295,5.5490156,0.07583886)">
    <path
       d="m 108.74559,76.703316 c 0,0 -113.4944939,0 -113.4944939,0 0,0 0,-75.6006396 0,-75.6006396 0,0 113.4944939,0 113.4944939,0 z"
       style="fill:#0a3661;fill-opacity:1;fill-rule:nonzero;stroke:none;stroke-width:0.936384"
       id="path428" />
    <g
       id="g430"
       transform="matrix(0.93638403,0,0,-0.93638367,-15.577669,125.22153)">
      <g
         id="g432" />
      <g
         id="g444">
        <g
           clip-path="url(#clipPath436)"
           opacity="0.3"
           id="g442">
          <g
             transform="scale(1,-1)"
             id="g440">
            <path
               d="m 90.81641,-80.07764 c -6.79004,0 -12.29883,-5.50586 -12.29883,-12.29687 0,-6.7959 5.50879,-12.30176 12.29883,-12.30176 6.79394,0 12.2998,5.50586 12.2998,12.30176 0,6.79101 -5.50586,12.29687 -12.2998,12.29687 z m 32.35742,-12.2832 c 0,0 -0.16504,-3.23145 -0.16504,-3.23145 2.50293,-1.07128 4.97168,-2.33886 7.40039,-3.80468 -0.19727,-1.52149 -0.68848,-2.98926 -1.04688,-4.47754 -2.86035,-0.38477 -5.75488,-0.51367 -8.51562,-0.43848 -0.36621,-1.01172 -0.90723,-1.9541 -1.35449,-2.93066 -0.48438,-0.96485 -1.09766,-1.85938 -1.64063,-2.78711 1.7461,-2.1377 3.30567,-4.38867 4.7793,-6.82227 -0.87891,-1.25976 -1.99902,-2.31543 -3.00586,-3.46289 -2.70898,0.98828 -5.33105,2.22071 -7.7373,3.57129 -0.80176,-0.7207 -1.70997,-1.31445 -2.56348,-1.97461 -0.87891,-0.61719 -1.82617,-1.13867 -2.74121,-1.70996 0.55371,-2.69141 0.89746,-5.42187 1.06933,-8.25684 -1.36328,-0.70312 -2.85156,-1.12597 -4.28222,-1.6748 -1.93946,2.13184 -3.69336,4.44629 -5.19239,6.75977 -1.04296,-0.27832 -2.12402,-0.3584 -3.18457,-0.5459 -1.06543,-0.17188 -2.15332,-0.14356 -3.22461,-0.22461 -0.76367,-2.70801 -1.72656,-5.21973 -2.88574,-7.81738 -1.53027,0.0322 -3.04687,0.26953 -4.55761,0.51464 -0.74317,2.73536 -1.21582,5.61719 -1.46778,8.38965 -1.05664,0.22949 -2.06445,0.61133 -3.07324,0.99024 -1.03027,0.33203 -1.99023,0.83105 -2.96191,1.29882 -1.92774,-2.02343 -3.98438,-3.86718 -6.20508,-5.58203 -1.33301,0.76075 -2.58399,1.63868 -3.79297,2.58203 0.62695,2.77247 1.54297,5.52442 2.61621,8.10352 -0.82813,0.69727 -1.54395,1.50195 -2.26367,2.30566 -0.75488,0.76954 -1.37012,1.66114 -2.01758,2.52149 -2.64941,-0.89942 -5.31445,-1.57324 -8.08594,-2.07227 -0.83105,1.28711 -1.52246,2.6543 -2.16308,4.05078 1.83398,2.167 3.93066,4.18848 6.07519,5.97168 -0.41308,0.99805 -0.66894,2.0459 -0.93066,3.09278 -0.31055,1.03515 -0.4502,2.10742 -0.61133,3.17187 -2.75293,0.43946 -5.46484,1.08594 -8.11621,1.93555 -0.10449,1.52441 -0.14942,3.05176 -0.02735,4.57422 2.67286,1.06152 5.36133,1.88769 8.14356,2.46777 0.16113,1.06055 0.30078,2.13477 0.61133,3.16992 0.26172,1.04785 0.51758,2.09571 0.93066,3.09668 -2.17383,1.63965 -4.3789,3.51221 -6.30469,5.48877 0.667,1.37891 1.28223,2.78711 2.12012,4.07617 2.88477,-0.32421 5.62012,-0.82421 8.3584,-1.61914 0.64746,0.86133 1.2627,1.75196 2.01758,2.52344 0.71972,0.80078 1.43554,1.60742 2.26367,2.30469 -1.16699,2.4668 -2.24121,5.13867 -3.03711,7.78515 1.22461,0.91602 2.42481,1.86719 3.7627,2.62696 2.40429,-1.61524 4.59765,-3.33985 6.65625,-5.30664 0.97168,0.46679 1.93164,0.96289 2.96191,1.29297 1.00879,0.38281 2.0166,0.76562 3.07324,0.99414 0.11621,2.71679 0.41211,5.58984 0.94141,8.30859 1.51758,0.21094 3.02344,0.54102 4.55469,0.5625 1.37109,-2.58398 2.51171,-5.08008 3.41503,-7.78711 1.0752,-0.08008 2.15918,-0.05078 3.22461,-0.22266 1.06055,-0.1875 2.14161,-0.26953 3.18457,-0.54492 1.36915,2.36328 2.93555,4.68164 4.68946,6.92774 1.44336,-0.50391 2.90625,-0.9961 4.30371,-1.61524 0.0225,-2.92187 -0.16309,-5.73242 -0.58789,-8.48437 0.91504,-0.57227 1.8623,-1.09571 2.74121,-1.70899 0.85351,-0.66211 1.76172,-1.2539 2.56348,-1.97656 2.30761,1.45508 4.7705,2.77734 7.37011,3.95508 1.03907,-1.12109 2.10742,-2.22266 3.05274,-3.42188 -1.34375,-2.59961 -2.79883,-4.99414 -4.45899,-7.24414 0.54297,-0.92968 1.15625,-1.82422 1.64063,-2.78515 0.44726,-0.98096 0.98828,-1.92334 1.35449,-2.93408 2.71973,0.21093 5.51758,0.24023 8.36426,0.07031 0.40429,-1.47754 0.82422,-2.95996 1.11914,-4.46192 -2.39649,-1.67675 -4.83789,-3.12011 -7.32129,-4.33007 0,0 0.16504,-3.22852 0.16504,-3.22852 z"
               style="fill:#ffffff;fill-opacity:1;fill-rule:nonzero;stroke:none"
               id="path438" />
          </g>
        </g>
      </g>
    </g>
    <path
       d="m 21.612509,50.346036 c 0,0 -2.503732,21.58392 -2.503732,21.58392 0,0 -6.955223,0 -6.955223,0 -0.642846,-3.3121 -1.210703,-7.0997 -1.708159,-11.35548 -0.254215,1.83984 -0.7791119,5.62562 -1.5719279,11.35548 0,0 -6.916792,0 -6.916792,0 0,0 -2.51653501,-21.58392 -2.51653501,-21.58392 0,0 5.43632701,0 5.43632701,0 0,0 0.581582,7.53999 0.581582,7.53999 0,0 0.566043,7.29904 0.566043,7.29904 0.2222,-3.77663 0.750741,-8.72191 1.578308,-14.83903 0,0 5.7646159,0 5.7646159,0 0.05301,0.64284 0.255129,3.01901 0.598957,7.13398 0,0 0.691314,8.23908 0.691314,8.23908 0.301769,-5.24156 0.808362,-10.36789 1.519802,-15.37306 z"
       style="fill:#ffffff;fill-opacity:1;fill-rule:nonzero;stroke:none;stroke-width:0.936384"
       id="path446" />
    <path
       d="m 29.690643,50.346036 c 0,0 0,21.58392 0,21.58392 0,0 -5.594528,0 -5.594528,0 0,0 0,-21.58392 0,-21.58392 z"
       style="fill:#ffffff;fill-opacity:1;fill-rule:nonzero;stroke:none;stroke-width:0.936384"
       id="path448" />
    <path
       d="m 45.845093,50.346036 c 0,0 0,21.58392 0,21.58392 0,0 -4.901382,0 -4.901382,0 0,0 -2.929857,-9.80826 -2.929857,-9.80826 0,0 0,9.80826 0,9.80826 0,0 -4.692894,0 -4.692894,0 0,0 0,-21.58392 0,-21.58392 0,0 4.692894,0 4.692894,0 0,0 3.142005,9.72184 3.142005,9.72184 0,0 0,-9.72184 0,-9.72184 z"
       style="fill:#ffffff;fill-opacity:1;fill-rule:nonzero;stroke:none;stroke-width:0.936384"
       id="path450" />
    <path
       d="m 55.055316,54.023436 c 0,0 0,14.23048 0,14.23048 0.829385,0 1.338735,-0.15911 1.529855,-0.48465 0.18928,-0.32555 0.28438,-1.20889 0.28438,-2.6537 0,0 0,-8.40367 0,-8.40367 0,-0.98028 -0.032,-1.60941 -0.0951,-1.88741 -0.064,-0.27433 -0.20849,-0.47733 -0.43709,-0.60352 -0.2277,-0.13168 -0.65382,-0.19753 -1.282045,-0.19753 z m -5.594532,-3.6774 c 0,0 4.204588,0 4.204588,0 2.709469,0 4.543829,0.12711 5.501249,0.37492 0.95468,0.24872 1.68256,0.65839 2.18002,1.22809 0.49837,0.56741 0.80653,1.19837 0.93547,1.89517 0.12071,0.70229 0.18197,2.07212 0.18197,4.11497 0,0 0,7.56422 0,7.56422 0,1.93495 -0.0887,3.22979 -0.27067,3.88087 -0.18472,0.65473 -0.50111,1.16865 -0.95467,1.53625 -0.45265,0.36944 -1.0132,0.62365 -1.6789,0.77361 -0.66846,0.14632 -1.67343,0.21582 -3.01308,0.21582 0,0 -7.085977,0 -7.085977,0 0,0 0,-21.58392 0,-21.58392 z"
       style="fill:#ffffff;fill-opacity:1;fill-rule:nonzero;stroke:none;stroke-width:0.936384"
       id="path452" />
    <path
       d="m 73.155691,55.930956 c 0,-1.00222 -0.0549,-1.63867 -0.17008,-1.91483 -0.1134,-0.27799 -0.34932,-0.41698 -0.70595,-0.41698 -0.30543,0 -0.53678,0.11339 -0.69406,0.33651 -0.16003,0.22496 -0.24049,0.88883 -0.24049,1.9953 0,0 0,10.0076 0,10.0076 0,1.24547 0.0531,2.01359 0.1591,2.30438 0.10426,0.29445 0.34932,0.43893 0.73338,0.43893 0.3923,0 0.64559,-0.16642 0.75533,-0.50476 0.10973,-0.33103 0.16277,-1.13208 0.16277,-2.39583 z m 5.59635,7.04849 c 0,2.16539 -0.0494,3.69798 -0.1527,4.59596 -0.10334,0.90346 -0.42156,1.72463 -0.96017,2.46898 -0.5386,0.74435 -1.26833,1.31861 -2.18275,1.71731 -0.91718,0.39504 -1.98615,0.59621 -3.20419,0.59621 -1.15677,0 -2.19831,-0.18655 -3.11641,-0.56329 -0.92541,-0.37674 -1.66427,-0.94187 -2.223,-1.69719 -0.56145,-0.75533 -0.89706,-1.57284 -1.00497,-2.46167 -0.10607,-0.887 -0.15453,-2.43789 -0.15453,-4.65631 0,0 0,-3.68153 0,-3.68153 0,-2.16356 0.0466,-3.69433 0.15088,-4.59597 0.1015,-0.89796 0.42065,-1.72279 0.96016,-2.46714 0.5377,-0.74298 1.26558,-1.31358 2.18368,-1.71503 0.91443,-0.40052 1.98249,-0.6017 3.20419,-0.6017 1.15767,0 2.19373,0.19295 3.11639,0.56786 0.92176,0.3795 1.66154,0.94005 2.22392,1.69766 0.55964,0.7535 0.89523,1.57466 1.00131,2.45618 0.10882,0.89066 0.15819,2.44155 0.15819,4.65814 0,0 0,3.68153 0,3.68153 z"
       style="fill:#ffffff;fill-opacity:1;fill-rule:nonzero;stroke:none;stroke-width:0.936384"
       id="path454" />
    <path
       d="m 103.28641,50.346036 c 0,0 -2.5019,21.58392 -2.5019,21.58392 0,0 -6.957049,0 -6.957049,0 -0.63919,-3.3121 -1.20888,-7.0997 -1.70268,-11.35548 -0.25604,1.83984 -0.78001,5.62562 -1.57467,11.35548 0,0 -6.91496,0 -6.91496,0 0,0 -2.51654,-21.58392 -2.51654,-21.58392 0,0 5.43359,0 5.43359,0 0,0 0.58158,7.53999 0.58158,7.53999 0,0 0.56878,7.29904 0.56878,7.29904 0.2213,-3.77663 0.74892,-8.72191 1.58015,-14.83903 0,0 5.76462,0 5.76462,0 0.0512,0.64284 0.25329,3.01901 0.59804,7.13398 0,0 0.68856,8.23908 0.68856,8.23908 0.30268,-5.24156 0.81111,-10.36789 1.51889,-15.37306 z"
       style="fill:#ffffff;fill-opacity:1;fill-rule:nonzero;stroke:none;stroke-width:0.936384"
       id="path456" />
    <g
       id="g458"
       transform="matrix(0.93638403,0,0,-0.93638367,-15.577669,125.22153)">
      <g
         id="g460" />
      <g
         id="g472">
        <g
           clip-path="url(#clipPath464)"
           opacity="0.5"
           id="g470">
          <g
             transform="scale(1,-1)"
             id="g468">
            <path
               d="m 26.13867,-67.6582 c -5.54394,0 -10.04101,-4.49805 -10.04101,-10.04297 0,-5.54639 4.49707,-10.04053 10.04101,-10.04053 5.54492,0 10.04297,4.49414 10.04297,10.04053 0,5.54492 -4.49805,10.04297 -10.04297,10.04297 z m 26.4209,-10.0293 c 0,0 -0.13769,-2.63721 -0.13769,-2.63721 2.04785,-0.87695 4.06054,-1.91015 6.04492,-3.10742 -0.16309,-1.24219 -0.56446,-2.44141 -0.85938,-3.65625 -2.33301,-0.31641 -4.69922,-0.42383 -6.94922,-0.3584 -0.30078,-0.8291 -0.74023,-1.59668 -1.10547,-2.39648 -0.39746,-0.78711 -0.89648,-1.5166 -1.33886,-2.27344 1.4248,-1.74609 2.69629,-3.58203 3.89941,-5.57129 -0.71582,-1.02637 -1.63086,-1.88867 -2.4541,-2.82812 -2.20898,0.80761 -4.35254,1.81347 -6.31738,2.91406 -0.6543,-0.58496 -1.39551,-1.06836 -2.08985,-1.6084 -0.71972,-0.50586 -1.49414,-0.92871 -2.24023,-1.39355 0.45312,-2.19825 0.73047,-4.42774 0.87305,-6.74512 -1.11329,-0.57422 -2.33106,-0.91992 -3.4961,-1.36719 -1.58398,1.74024 -3.01367,3.62988 -4.24023,5.51953 -0.84961,-0.22949 -1.73828,-0.29004 -2.59864,-0.44629 -0.87011,-0.1416 -1.75878,-0.11523 -2.63574,-0.18164 -0.62109,-2.21289 -1.40625,-4.26172 -2.35351,-6.37988 -1.24903,0.0225 -2.48828,0.21582 -3.72266,0.41406 -0.60547,2.23731 -0.99316,4.58985 -1.19726,6.85254 -0.86524,0.18555 -1.6875,0.49903 -2.5127,0.80762 -0.84082,0.27148 -1.62207,0.67871 -2.41699,1.06152 -1.03174,-1.08545 -2.13281,-2.08838 -3.26758,-3.05908 0,0 0,52.59082 0,52.59082 1.13965,-0.86719 2.229,-1.77832 3.26758,-2.77344 0.79492,0.38086 1.57617,0.78907 2.41699,1.0625 0.8252,0.30664 1.64746,0.61914 2.5127,0.80664 0.09375,2.21875 0.33593,4.56836 0.76855,6.78321 1.2373,0.17187 2.46777,0.4414 3.71582,0.46289 1.12109,-2.11133 2.05078,-4.15039 2.78906,-6.35742 0.87696,-0.07032 1.76563,-0.04493 2.63574,-0.1836 0.86036,-0.1543 1.74903,-0.21875 2.59864,-0.44726 1.11719,1.92968 2.39648,3.82226 3.82812,5.6582 1.17871,-0.41406 2.37305,-0.81445 3.51563,-1.32031 0.01562,-2.38868 -0.13574,-4.67969 -0.48047,-6.92578 0.74609,-0.47071 1.52051,-0.89258 2.24023,-1.4004 0.69434,-0.53515 1.43555,-1.01953 2.08985,-1.60937 1.88476,1.1875 3.89453,2.26953 6.01855,3.22852 0.84961,-0.91211 1.71973,-1.81446 2.49219,-2.79297 -1.09473,-2.12305 -2.28223,-4.07813 -3.63867,-5.91797 0.44238,-0.75977 0.9414,-1.48828 1.33886,-2.27344 0.36524,-0.80078 0.80469,-1.56836 1.10547,-2.39258 2.22071,0.16992 4.50293,0.19336 6.82813,0.05469 0.33398,-1.20313 0.6748,-2.41602 0.91211,-3.64063 -1.95508,-1.37109 -3.94727,-2.54882 -5.97656,-3.5371 0,0 0.13769,-2.63477 0.13769,-2.63477 z"
               style="fill:#ffffff;fill-opacity:1;fill-rule:nonzero;stroke:none"
               id="path466" />
          </g>
        </g>
      </g>
    </g>
    <path
       d="m 108.74559,115.19564 c 0,0 -113.4944939,0 -113.4944939,0 0,0 0,-38.764834 0,-38.764834 0,0 113.4944939,0 113.4944939,0 z"
       style="fill:#799f18;fill-opacity:1;fill-rule:nonzero;stroke:none;stroke-width:0.936384"
       id="path474" />
    <path
       d="m 31.788362,82.336246 c 0,0 -3.156638,27.180744 -3.156638,27.180744 0,0 -8.789574,0 -8.789574,0 -0.808363,-4.17351 -1.525275,-8.93589 -2.150752,-14.289014 -0.317315,2.2989 -0.976622,7.063114 -1.975192,14.289014 0,0 -8.7383619,0 -8.7383619,0 0,0 -3.17127,-27.180744 -3.17127,-27.180744 0,0 6.8747469,0 6.8747469,0 0,0 0.717826,9.49003 0.717826,9.49003 0,0 0.694979,9.215704 0.694979,9.215704 0.29719,-4.777024 0.96747,-11.013484 2.007185,-18.705734 0,0 7.289898,0 7.289898,0 0.06587,0.80653 0.310906,3.79674 0.729722,8.97611 0,0 0.844942,10.367894 0.844942,10.367894 0.416073,-6.602234 1.062577,-13.050844 1.946835,-19.344004 0,0 6.875654,0 6.875654,0 z"
       style="fill:#0a3661;fill-opacity:1;fill-rule:nonzero;stroke:none;stroke-width:0.936384"
       id="path476" />
    <path
       d="m 71.709971,86.972446 c 0,0 0,6.07551 0,6.07551 0.78367,0 1.33781,-0.10607 1.65604,-0.32919 0.3164,-0.21764 0.47368,-0.92908 0.47368,-2.13429 0,0 0,-1.49968 0,-1.49968 0,-0.86872 -0.15362,-1.43567 -0.45905,-1.70634 -0.30542,-0.26885 -0.86231,-0.40601 -1.67067,-0.40601 z m -7.08965,-4.6362 c 0,0 5.00016,0 5.00016,0 3.3322,0 5.59086,0.12985 6.77049,0.38589 1.18237,0.26153 2.14344,0.91627 2.88596,1.97519 0.74436,1.05709 1.11835,2.74514 1.11835,5.06598 0,2.116 -0.2606,3.53705 -0.79097,4.26493 -0.52489,0.72973 -1.55821,1.16683 -3.10544,1.31131 1.39908,0.34748 2.34096,0.81385 2.82379,1.39177 0.47916,0.58341 0.77727,1.11745 0.89614,1.6021 0.11521,0.4883 0.17648,1.825214 0.17648,4.018034 0,0 0,7.16554 0,7.16554 0,0 -6.55559,0 -6.55559,0 0,0 0,-9.03465 0,-9.03465 0,-1.453964 -0.11339,-2.353754 -0.34108,-2.699414 -0.22953,-0.34931 -0.82391,-0.52307 -1.78864,-0.52307 0,0 0,12.257134 0,12.257134 0,0 -7.08965,0 -7.08965,0 0,0 0,-27.180744 0,-27.180744 z"
       style="fill:#0a3661;fill-opacity:1;fill-rule:nonzero;stroke:none;stroke-width:0.936384"
       id="path478" />
    <path
       d="m 99.151321,82.336246 c 0,0 -2.50555,12.02119 -2.50555,12.02119 0,0 3.785769,15.159554 3.785769,15.159554 0,0 -6.555609,0 -6.555609,0 -0.76173,-2.70857 -1.47315,-6.02066 -2.12973,-9.939954 -0.2094,1.746594 -0.46545,3.580944 -0.76812,5.503094 0,0 -0.61634,4.43686 -0.61634,4.43686 0,0 -6.87931,0 -6.87931,0 0,0 2.55952,-15.159554 2.55952,-15.159554 0,0 -2.55952,-12.02119 -2.55952,-12.02119 0,0 6.8208,0 6.8208,0 0.14264,0.74801 0.38589,1.9953 0.72423,3.74919 0.25878,1.33874 0.49654,2.57689 0.71874,3.7053 0,0 1.49053,-7.45449 1.49053,-7.45449 z"
       style="fill:#0a3661;fill-opacity:1;fill-rule:nonzero;stroke:none;stroke-width:0.936384"
       id="path480" />
    <path
       d="m 47.629169,100.55367 c -2.518371,0 -4.562127,-2.041024 -4.562127,-4.563054 0,-2.52018 2.043756,-4.5612 4.562127,-4.5612 2.521107,0 4.563955,2.04102 4.563955,4.5612 0,2.52203 -2.042848,4.563054 -4.563955,4.563054 z m 12.007482,-4.557564 c 0,0 -0.0622,-1.19974 -0.0622,-1.19974 0.92907,-0.39503 1.84167,-0.86323 2.74788,-1.41006 -0.0741,-0.56512 -0.25787,-1.11012 -0.39046,-1.66428 -1.05984,-0.14264 -2.13613,-0.18837 -3.16122,-0.16095 -0.13441,-0.37308 -0.33559,-0.72422 -0.50019,-1.08634 -0.18105,-0.36029 -0.40783,-0.68949 -0.60902,-1.03696 0.64925,-0.79008 1.22718,-1.62588 1.77218,-2.52751 -0.32553,-0.4682 -0.73886,-0.85958 -1.11561,-1.2857 -1.00313,0.3676 -1.97518,0.82299 -2.87041,1.3241 -0.29537,-0.26701 -0.636452,-0.48648 -0.951938,-0.73155 -0.323709,-0.23226 -0.676682,-0.42247 -1.013194,-0.63279 0.202089,-1.0004 0.329204,-2.01177 0.39504,-3.06702 -0.506601,-0.26154 -1.060748,-0.41698 -1.589296,-0.61816 -0.723321,0.78642 -1.369825,1.64782 -1.928551,2.50739 -0.385888,-0.10608 -0.785493,-0.13534 -1.180532,-0.20302 -0.39504,-0.0659 -0.795566,-0.0531 -1.196085,-0.0841 -0.283486,-1.00223 -0.640117,-1.93496 -1.0699,-2.90243 -0.56695,0.0147 -1.130242,0.10058 -1.691705,0.19204 -0.276155,1.01867 -0.449902,2.08674 -0.545923,3.11456 -0.39046,0.0841 -0.763552,0.22861 -1.139387,0.36395 -0.384059,0.1262 -0.736124,0.31274 -1.098242,0.48283 -0.71509,-0.75168 -1.479564,-1.43384 -2.30255,-2.07029 -0.496541,0.27981 -0.959246,0.60719 -1.408233,0.96016 0.230438,1.02599 0.570615,2.04834 0.971134,3.00484 -0.307248,0.25786 -0.572444,0.55963 -0.839447,0.85591 -0.281657,0.28348 -0.50843,0.61633 -0.748934,0.93455 -0.981188,-0.33286 -1.972434,-0.5834 -3.001183,-0.76629 -0.308169,0.4755 -0.562377,0.98393 -0.803797,1.49967 0.680348,0.80653 1.46036,1.55638 2.256842,2.21843 -0.15455,0.36943 -0.247821,0.75715 -0.345664,1.14853 -0.114306,0.38223 -0.167339,0.78092 -0.224945,1.17231 -1.024168,0.16643 -2.028224,0.40784 -3.014905,0.72241 -0.03751,0.56511 -0.05301,1.12658 -0.0082,1.69536 0.993082,0.39504 1.987994,0.69863 3.023135,0.91627 0.05759,0.3932 0.110647,0.7919 0.224945,1.17596 0.09784,0.38955 0.191122,0.7791 0.345664,1.14854 -0.808363,0.609014 -1.624962,1.303984 -2.340046,2.037364 0.247814,0.51026 0.475508,1.03515 0.783671,1.51065 1.07538,-0.11887 2.086752,-0.30542 3.104513,-0.59622 0.240504,0.31641 0.467277,0.65109 0.748934,0.93456 0.267003,0.29629 0.534028,0.59622 0.839447,0.85591 -0.430697,0.91445 -0.832138,1.90203 -1.12842,2.8878 0.457218,0.33834 0.901633,0.69314 1.397267,0.97113 0.891573,-0.59804 1.705422,-1.23631 2.470803,-1.96421 0.362117,0.17009 0.714183,0.3548 1.098241,0.47916 0.375835,0.13901 0.748927,0.27982 1.139387,0.36762 0.04301,1.00952 0.154542,2.07394 0.3484,3.08164 0.565128,0.0805 1.122933,0.20118 1.690791,0.20849 0.511173,-0.95833 0.935476,-1.88191 1.268337,-2.88779 0.400519,-0.0292 0.801046,-0.0183 1.196085,-0.0823 0.39504,-0.0695 0.794645,-0.1006 1.180532,-0.20301 0.509351,0.87603 1.089104,1.73925 1.742009,2.57323 0.536779,-0.19021 1.077201,-0.37127 1.596605,-0.60171 0.0091,-1.08269 -0.06037,-2.12698 -0.215806,-3.14932 0.336519,-0.21031 0.689484,-0.40418 1.013193,-0.63279 0.315486,-0.24689 0.656578,-0.46453 0.951938,-0.73155 0.85683,0.53768 1.76943,1.026 2.73691,1.46493 0.38406,-0.41332 0.7791,-0.823 1.13391,-1.27106 -0.4993,-0.96016 -1.04247,-1.85083 -1.65697,-2.6848 0.20118,-0.34565 0.42797,-0.67668 0.60901,-1.03514 0.16461,-0.36578 0.36578,-0.71509 0.5002,-1.08635 1.01411,0.0768 2.04743,0.0841 3.10451,0.0237 0.14997,-0.548654 0.30544,-1.097324 0.41516,-1.653304 -0.887,-0.62182 -1.79412,-1.1595 -2.71588,-1.6094 0,0 0.0622,-1.19792 0.0622,-1.19792 z"
       style="fill:#ffffff;fill-opacity:1;fill-rule:nonzero;stroke:none;stroke-width:0.936384"
       id="path482" />
  </g>
</svg>
