<?xml version="1.0" encoding="UTF-8" standalone="no"?>
<!-- Created with Inkscape (http://www.inkscape.org/) -->

<svg
   width="210mm"
   height="297mm"
   viewBox="0 0 210 297"
   version="1.1"
   id="svg1"
   inkscape:version="1.4.2 (f4327f4, 2025-05-13)"
   sodipodi:docname="logo-old.svg"
   xmlns:inkscape="http://www.inkscape.org/namespaces/inkscape"
   xmlns:sodipodi="http://sodipodi.sourceforge.net/DTD/sodipodi-0.dtd"
   xmlns="http://www.w3.org/2000/svg"
   xmlns:svg="http://www.w3.org/2000/svg">
  <sodipodi:namedview
     id="namedview1"
     pagecolor="#ffffff"
     bordercolor="#000000"
     borderopacity="0.25"
     inkscape:showpageshadow="2"
     inkscape:pageopacity="0.0"
     inkscape:pagecheckerboard="0"
     inkscape:deskcolor="#d1d1d1"
     inkscape:document-units="mm"
     inkscape:zoom="0.50835204"
     inkscape:cx="496.70303"
     inkscape:cy="343.26606"
     inkscape:window-width="1920"
     inkscape:window-height="1009"
     inkscape:window-x="-8"
     inkscape:window-y="-8"
     inkscape:window-maximized="1"
     inkscape:current-layer="layer1"
     showguides="false" />
  <defs
     id="defs1">
    <clipPath
       clipPathUnits="userSpaceOnUse"
       id="clipPath436">
      <path
         d="m 51.22656,132.18895 h 79.18262 V 52.56836 H 51.22656 Z"
         id="path434" />
    </clipPath>
    <clipPath
       clipPathUnits="userSpaceOnUse"
       id="clipPath464">
      <path
         d="M 11.44336,110.20459 H 58.4668 V 45.19531 H 11.44336 Z"
         id="path462" />
    </clipPath>
  </defs>
  <g
     inkscape:label="Layer 1"
     inkscape:groupmode="layer"
     id="layer1">
    <path
       d="m 154.03088,103.75928 c 0,0 -146.3172703,0 -146.3172703,0 0,0 0,-97.4644895 0,-97.4644895 0,0 146.3172703,0 146.3172703,0 z"
       style="fill:#0a3661;fill-opacity:1;fill-rule:nonzero;stroke:none;stroke-width:1.20719"
       id="path428" />
    <g
       id="g430"
       transform="matrix(1.2071876,0,0,-1.2071876,-6.2468509,166.30904)">
      <g
         id="g432" />
      <g
         id="g444">
        <g
           clip-path="url(#clipPath436)"
           opacity="0.3"
           id="g442">
          <g
             transform="scale(1,-1)"
             id="g440">
            <path
               d="m 90.81641,-80.07764 c -6.79004,0 -12.29883,-5.50586 -12.29883,-12.29687 0,-6.7959 5.50879,-12.30176 12.29883,-12.30176 6.79394,0 12.2998,5.50586 12.2998,12.30176 0,6.79101 -5.50586,12.29687 -12.2998,12.29687 z m 32.35742,-12.2832 c 0,0 -0.16504,-3.23145 -0.16504,-3.23145 2.50293,-1.07128 4.97168,-2.33886 7.40039,-3.80468 -0.19727,-1.52149 -0.68848,-2.98926 -1.04688,-4.47754 -2.86035,-0.38477 -5.75488,-0.51367 -8.51562,-0.43848 -0.36621,-1.01172 -0.90723,-1.9541 -1.35449,-2.93066 -0.48438,-0.96485 -1.09766,-1.85938 -1.64063,-2.78711 1.7461,-2.1377 3.30567,-4.38867 4.7793,-6.82227 -0.87891,-1.25976 -1.99902,-2.31543 -3.00586,-3.46289 -2.70898,0.98828 -5.33105,2.22071 -7.7373,3.57129 -0.80176,-0.7207 -1.70997,-1.31445 -2.56348,-1.97461 -0.87891,-0.61719 -1.82617,-1.13867 -2.74121,-1.70996 0.55371,-2.69141 0.89746,-5.42187 1.06933,-8.25684 -1.36328,-0.70312 -2.85156,-1.12597 -4.28222,-1.6748 -1.93946,2.13184 -3.69336,4.44629 -5.19239,6.75977 -1.04296,-0.27832 -2.12402,-0.3584 -3.18457,-0.5459 -1.06543,-0.17188 -2.15332,-0.14356 -3.22461,-0.22461 -0.76367,-2.70801 -1.72656,-5.21973 -2.88574,-7.81738 -1.53027,0.0322 -3.04687,0.26953 -4.55761,0.51464 -0.74317,2.73536 -1.21582,5.61719 -1.46778,8.38965 -1.05664,0.22949 -2.06445,0.61133 -3.07324,0.99024 -1.03027,0.33203 -1.99023,0.83105 -2.96191,1.29882 -1.92774,-2.02343 -3.98438,-3.86718 -6.20508,-5.58203 -1.33301,0.76075 -2.58399,1.63868 -3.79297,2.58203 0.62695,2.77247 1.54297,5.52442 2.61621,8.10352 -0.82813,0.69727 -1.54395,1.50195 -2.26367,2.30566 -0.75488,0.76954 -1.37012,1.66114 -2.01758,2.52149 -2.64941,-0.89942 -5.31445,-1.57324 -8.08594,-2.07227 -0.83105,1.28711 -1.52246,2.6543 -2.16308,4.05078 1.83398,2.167 3.93066,4.18848 6.07519,5.97168 -0.41308,0.99805 -0.66894,2.0459 -0.93066,3.09278 -0.31055,1.03515 -0.4502,2.10742 -0.61133,3.17187 -2.75293,0.43946 -5.46484,1.08594 -8.11621,1.93555 -0.10449,1.52441 -0.14942,3.05176 -0.02735,4.57422 2.67286,1.06152 5.36133,1.88769 8.14356,2.46777 0.16113,1.06055 0.30078,2.13477 0.61133,3.16992 0.26172,1.04785 0.51758,2.09571 0.93066,3.09668 -2.17383,1.63965 -4.3789,3.51221 -6.30469,5.48877 0.667,1.37891 1.28223,2.78711 2.12012,4.07617 2.88477,-0.32421 5.62012,-0.82421 8.3584,-1.61914 0.64746,0.86133 1.2627,1.75196 2.01758,2.52344 0.71972,0.80078 1.43554,1.60742 2.26367,2.30469 -1.16699,2.4668 -2.24121,5.13867 -3.03711,7.78515 1.22461,0.91602 2.42481,1.86719 3.7627,2.62696 2.40429,-1.61524 4.59765,-3.33985 6.65625,-5.30664 0.97168,0.46679 1.93164,0.96289 2.96191,1.29297 1.00879,0.38281 2.0166,0.76562 3.07324,0.99414 0.11621,2.71679 0.41211,5.58984 0.94141,8.30859 1.51758,0.21094 3.02344,0.54102 4.55469,0.5625 1.37109,-2.58398 2.51171,-5.08008 3.41503,-7.78711 1.0752,-0.08008 2.15918,-0.05078 3.22461,-0.22266 1.06055,-0.1875 2.14161,-0.26953 3.18457,-0.54492 1.36915,2.36328 2.93555,4.68164 4.68946,6.92774 1.44336,-0.50391 2.90625,-0.9961 4.30371,-1.61524 0.0225,-2.92187 -0.16309,-5.73242 -0.58789,-8.48437 0.91504,-0.57227 1.8623,-1.09571 2.74121,-1.70899 0.85351,-0.66211 1.76172,-1.2539 2.56348,-1.97656 2.30761,1.45508 4.7705,2.77734 7.37011,3.95508 1.03907,-1.12109 2.10742,-2.22266 3.05274,-3.42188 -1.34375,-2.59961 -2.79883,-4.99414 -4.45899,-7.24414 0.54297,-0.92968 1.15625,-1.82422 1.64063,-2.78515 0.44726,-0.98096 0.98828,-1.92334 1.35449,-2.93408 2.71973,0.21093 5.51758,0.24023 8.36426,0.07031 0.40429,-1.47754 0.82422,-2.95996 1.11914,-4.46192 -2.39649,-1.67675 -4.83789,-3.12011 -7.32129,-4.33007 0,0 0.16504,-3.22852 0.16504,-3.22852 z"
               style="fill:#ffffff;fill-opacity:1;fill-rule:nonzero;stroke:none"
               id="path438" />
          </g>
        </g>
      </g>
    </g>
    <path
       d="m 41.698778,69.779422 c 0,0 -3.227815,27.826025 -3.227815,27.826025 0,0 -8.966675,0 -8.966675,0 -0.828759,-4.269956 -1.560846,-9.152933 -2.202164,-14.639504 -0.32774,2.37193 -1.004429,7.252554 -2.02653,14.639504 0,0 -8.917145,0 -8.917145,0 0,0 -3.244317,-27.826025 -3.244317,-27.826025 0,0 7.008521,0 7.008521,0 0,0 0.749772,9.720565 0.749772,9.720565 0,0 0.729745,9.409942 0.729745,9.409942 0.286466,-4.868841 0.967863,-11.2443 2.034763,-19.130507 0,0 7.431749,0 7.431749,0 0.06837,0.828759 0.32891,3.892118 0.772177,9.19714 0,0 0.891243,10.621839 0.891243,10.621839 0.38904,-6.757426 1.042141,-13.366308 1.959326,-19.818979 0,0 7.00735,0 7.00735,0 z"
       style="fill:#ffffff;fill-opacity:1;fill-rule:nonzero;stroke:none;stroke-width:1.20719"
       id="path446" />
    <path
       d="m 52.113125,69.779422 c 0,0 0,27.826025 0,27.826025 0,0 -7.212475,0 -7.212475,0 0,0 0,-27.826025 0,-27.826025 z"
       style="fill:#ffffff;fill-opacity:1;fill-rule:nonzero;stroke:none;stroke-width:1.20719"
       id="path448" />
    <path
       d="m 72.939465,69.779422 c 0,0 0,27.826025 0,27.826025 0,0 -6.318867,0 -6.318867,0 0,0 -3.777181,-12.64482 -3.777181,-12.64482 0,0 0,12.64482 0,12.64482 0,0 -6.050086,0 -6.050086,0 0,0 0,-27.826025 0,-27.826025 0,0 6.050086,0 6.050086,0 0,0 4.050682,12.533408 4.050682,12.533408 0,0 0,-12.533408 0,-12.533408 z"
       style="fill:#ffffff;fill-opacity:1;fill-rule:nonzero;stroke:none;stroke-width:1.20719"
       id="path450" />
    <path
       d="m 84.81329,74.520338 c 0,0 0,18.345956 0,18.345956 1.069254,0 1.725904,-0.205126 1.972291,-0.624817 0.244033,-0.41969 0.366635,-1.558491 0.366635,-3.421145 0,0 0,-10.834038 0,-10.834038 0,-1.263781 -0.04126,-2.074854 -0.122602,-2.433244 -0.08252,-0.353669 -0.268793,-0.615375 -0.563516,-0.778068 -0.293539,-0.169755 -0.842906,-0.254644 -1.652808,-0.254644 z m -7.212476,-4.740916 c 0,0 5.420562,0 5.420562,0 3.493058,0 5.857915,0.163864 7.092228,0.483346 1.230764,0.320653 2.169159,0.848798 2.810477,1.583251 0.642502,0.731507 1.039787,1.544946 1.206005,2.443263 0.155618,0.905391 0.234605,2.671373 0.234605,5.305022 0,0 0,9.751806 0,9.751806 0,2.494545 -0.114357,4.163856 -0.34895,5.003226 -0.238142,0.844089 -0.646039,1.50663 -1.230764,1.980548 -0.583554,0.476272 -1.306213,0.804011 -2.164451,0.997342 -0.861775,0.188623 -2.157377,0.278221 -3.884464,0.278221 0,0 -9.135248,0 -9.135248,0 0,0 0,-27.826025 0,-27.826025 z"
       style="fill:#ffffff;fill-opacity:1;fill-rule:nonzero;stroke:none;stroke-width:1.20719"
       id="path452" />
    <path
       d="m 108.14832,76.979512 c 0,-1.292065 -0.0707,-2.112579 -0.21927,-2.468602 -0.14619,-0.358378 -0.45034,-0.537573 -0.91011,-0.537573 -0.39375,0 -0.69201,0.146178 -0.89478,0.433827 -0.20631,0.290015 -0.31004,1.145886 -0.31004,2.572348 0,0 0,12.901817 0,12.901817 0,1.605656 0.0684,2.595924 0.20512,2.970816 0.1344,0.3796 0.45033,0.56587 0.94547,0.56587 0.50575,0 0.8323,-0.214554 0.97377,-0.650747 0.14147,-0.426765 0.20984,-1.459478 0.20984,-3.08871 z m 7.21483,9.086923 c 0,2.791622 -0.0636,4.76745 -0.19687,5.925118 -0.13322,1.164743 -0.54347,2.223398 -1.23785,3.183016 -0.69436,0.959618 -1.63512,1.699962 -2.81401,2.213958 -1.18243,0.509288 -2.56055,0.76864 -4.13084,0.76864 -1.49131,0 -2.83407,-0.240495 -4.01768,-0.726195 -1.19304,-0.4857 -2.14558,-1.214262 -2.86589,-2.188028 -0.723837,-0.973766 -1.156493,-2.027701 -1.295609,-3.173587 -0.136751,-1.143521 -0.199222,-3.142925 -0.199222,-6.002922 0,0 0,-4.746227 0,-4.746227 0,-2.789267 0.06012,-4.762741 0.194514,-5.92513 0.130859,-1.157669 0.542292,-2.221032 1.237837,-3.18065 0.69319,-0.957855 1.63159,-1.693479 2.8152,-2.211024 1.17889,-0.516351 2.55584,-0.775703 4.13085,-0.775703 1.49247,0 2.82816,0.248741 4.01766,0.732087 1.18834,0.489249 2.14205,1.211908 2.86708,2.188619 0.72148,0.971412 1.15413,2.030055 1.29089,3.166514 0.14029,1.14824 0.20394,3.147645 0.20394,6.005287 0,0 0,4.746227 0,4.746227 z"
       style="fill:#ffffff;fill-opacity:1;fill-rule:nonzero;stroke:none;stroke-width:1.20719"
       id="path454" />
    <path
       d="m 146.99288,69.779422 c 0,0 -3.22545,27.826025 -3.22545,27.826025 0,0 -8.96903,0 -8.96903,0 -0.82405,-4.269956 -1.55849,-9.152933 -2.1951,-14.639504 -0.33009,2.37193 -1.0056,7.252554 -2.03006,14.639504 0,0 -8.91479,0 -8.91479,0 0,0 -3.24431,-27.826025 -3.24431,-27.826025 0,0 7.00498,0 7.00498,0 0,0 0.74977,9.720565 0.74977,9.720565 0,0 0.73328,9.409942 0.73328,9.409942 0.28529,-4.868841 0.96551,-11.2443 2.03713,-19.130507 0,0 7.43175,0 7.43175,0 0.066,0.828759 0.32655,3.892118 0.771,9.19714 0,0 0.8877,10.621839 0.8877,10.621839 0.39021,-6.757426 1.04568,-13.366308 1.95815,-19.818979 0,0 7.00498,0 7.00498,0 z"
       style="fill:#ffffff;fill-opacity:1;fill-rule:nonzero;stroke:none;stroke-width:1.20719"
       id="path456" />
    <g
       id="g458"
       transform="matrix(1.2071876,0,0,-1.2071876,-6.2468509,166.30904)">
      <g
         id="g460" />
      <g
         id="g472">
        <g
           clip-path="url(#clipPath464)"
           opacity="0.5"
           id="g470">
          <g
             transform="scale(1,-1)"
             id="g468">
            <path
               d="m 26.13867,-67.6582 c -5.54394,0 -10.04101,-4.49805 -10.04101,-10.04297 0,-5.54639 4.49707,-10.04053 10.04101,-10.04053 5.54492,0 10.04297,4.49414 10.04297,10.04053 0,5.54492 -4.49805,10.04297 -10.04297,10.04297 z m 26.4209,-10.0293 c 0,0 -0.13769,-2.63721 -0.13769,-2.63721 2.04785,-0.87695 4.06054,-1.91015 6.04492,-3.10742 -0.16309,-1.24219 -0.56446,-2.44141 -0.85938,-3.65625 -2.33301,-0.31641 -4.69922,-0.42383 -6.94922,-0.3584 -0.30078,-0.8291 -0.74023,-1.59668 -1.10547,-2.39648 -0.39746,-0.78711 -0.89648,-1.5166 -1.33886,-2.27344 1.4248,-1.74609 2.69629,-3.58203 3.89941,-5.57129 -0.71582,-1.02637 -1.63086,-1.88867 -2.4541,-2.82812 -2.20898,0.80761 -4.35254,1.81347 -6.31738,2.91406 -0.6543,-0.58496 -1.39551,-1.06836 -2.08985,-1.6084 -0.71972,-0.50586 -1.49414,-0.92871 -2.24023,-1.39355 0.45312,-2.19825 0.73047,-4.42774 0.87305,-6.74512 -1.11329,-0.57422 -2.33106,-0.91992 -3.4961,-1.36719 -1.58398,1.74024 -3.01367,3.62988 -4.24023,5.51953 -0.84961,-0.22949 -1.73828,-0.29004 -2.59864,-0.44629 -0.87011,-0.1416 -1.75878,-0.11523 -2.63574,-0.18164 -0.62109,-2.21289 -1.40625,-4.26172 -2.35351,-6.37988 -1.24903,0.0225 -2.48828,0.21582 -3.72266,0.41406 -0.60547,2.23731 -0.99316,4.58985 -1.19726,6.85254 -0.86524,0.18555 -1.6875,0.49903 -2.5127,0.80762 -0.84082,0.27148 -1.62207,0.67871 -2.41699,1.06152 -1.03174,-1.08545 -2.13281,-2.08838 -3.26758,-3.05908 0,0 0,52.59082 0,52.59082 1.13965,-0.86719 2.229,-1.77832 3.26758,-2.77344 0.79492,0.38086 1.57617,0.78907 2.41699,1.0625 0.8252,0.30664 1.64746,0.61914 2.5127,0.80664 0.09375,2.21875 0.33593,4.56836 0.76855,6.78321 1.2373,0.17187 2.46777,0.4414 3.71582,0.46289 1.12109,-2.11133 2.05078,-4.15039 2.78906,-6.35742 0.87696,-0.07032 1.76563,-0.04493 2.63574,-0.1836 0.86036,-0.1543 1.74903,-0.21875 2.59864,-0.44726 1.11719,1.92968 2.39648,3.82226 3.82812,5.6582 1.17871,-0.41406 2.37305,-0.81445 3.51563,-1.32031 0.01562,-2.38868 -0.13574,-4.67969 -0.48047,-6.92578 0.74609,-0.47071 1.52051,-0.89258 2.24023,-1.4004 0.69434,-0.53515 1.43555,-1.01953 2.08985,-1.60937 1.88476,1.1875 3.89453,2.26953 6.01855,3.22852 0.84961,-0.91211 1.71973,-1.81446 2.49219,-2.79297 -1.09473,-2.12305 -2.28223,-4.07813 -3.63867,-5.91797 0.44238,-0.75977 0.9414,-1.48828 1.33886,-2.27344 0.36524,-0.80078 0.80469,-1.56836 1.10547,-2.39258 2.22071,0.16992 4.50293,0.19336 6.82813,0.05469 0.33398,-1.20313 0.6748,-2.41602 0.91211,-3.64063 -1.95508,-1.37109 -3.94727,-2.54882 -5.97656,-3.5371 0,0 0.13769,-2.63477 0.13769,-2.63477 z"
               style="fill:#ffffff;fill-opacity:1;fill-rule:nonzero;stroke:none"
               id="path466" />
          </g>
        </g>
      </g>
    </g>
    <path
       d="m 154.03088,153.38365 c 0,0 -146.3172703,0 -146.3172703,0 0,0 0,-49.97569 0,-49.97569 0,0 146.3172703,0 146.3172703,0 z"
       style="fill:#799f18;fill-opacity:1;fill-rule:nonzero;stroke:none;stroke-width:1.20719"
       id="path474" />
    <path
       d="m 54.817503,111.02126 c 0,0 -4.069539,35.04146 -4.069539,35.04146 0,0 -11.331532,0 -11.331532,0 -1.04214,-5.38049 -1.966387,-11.52016 -2.772753,-18.42141 -0.409079,2.96374 -1.25906,9.10578 -2.546417,18.42141 0,0 -11.265511,0 -11.265511,0 0,0 -4.088406,-35.04146 -4.088406,-35.04146 0,0 8.86293,0 8.86293,0 0,0 0.92543,12.23457 0.92543,12.23457 0,0 0.895962,11.88089 0.895962,11.88089 0.383138,-6.15854 1.247267,-14.19859 2.587667,-24.11546 0,0 9.398149,0 9.398149,0 0.08488,1.03979 0.400822,4.89477 0.940761,11.57203 0,0 1.089294,13.36629 1.089294,13.36629 0.536402,-8.51161 1.36988,-16.82517 2.509864,-24.93832 0,0 8.864101,0 8.864101,0 z"
       style="fill:#0a3661;fill-opacity:1;fill-rule:nonzero;stroke:none;stroke-width:1.20719"
       id="path476" />
    <path
       d="m 106.28449,116.99825 c 0,0 0,7.83257 0,7.83257 1.01031,0 1.72472,-0.13675 2.13498,-0.4244 0.4079,-0.28057 0.61067,-1.19776 0.61067,-2.75153 0,0 0,-1.93339 0,-1.93339 0,-1.11995 -0.19805,-1.85086 -0.59181,-2.19981 -0.39375,-0.3466 -1.1117,-0.52344 -2.15384,-0.52344 z m -9.139972,-5.97699 c 0,0 6.446202,0 6.446202,0 4.29588,0 7.20775,0.1674 8.72853,0.49749 1.52431,0.33717 2.76333,1.18126 3.72059,2.54642 0.95962,1.3628 1.44178,3.53904 1.44178,6.53107 0,2.72796 -0.33598,4.55997 -1.01973,5.49836 -0.67669,0.94076 -2.00884,1.50427 -4.00353,1.69054 1.8037,0.44797 3.01797,1.04921 3.64043,1.79428 0.61774,0.75213 1.00205,1.44061 1.15531,2.06542 0.14853,0.62953 0.22752,2.35306 0.22752,5.18006 0,0 0,9.23782 0,9.23782 0,0 -8.45148,0 -8.45148,0 0,0 0,-11.64748 0,-11.64748 0,-1.87445 -0.14619,-3.03447 -0.43973,-3.48009 -0.29591,-0.45034 -1.06218,-0.67434 -2.30592,-0.67434 0,0 0,15.80191 0,15.80191 0,0 -9.139972,0 -9.139972,0 0,0 0,-35.04146 0,-35.04146 z"
       style="fill:#0a3661;fill-opacity:1;fill-rule:nonzero;stroke:none;stroke-width:1.20719"
       id="path478" />
    <path
       d="m 141.66193,111.02126 c 0,0 -3.23017,15.49774 -3.23017,15.49774 0,0 4.88062,19.54372 4.88062,19.54372 0,0 -8.45149,0 -8.45149,0 -0.98203,-3.49189 -1.8992,-7.76184 -2.74566,-12.81459 -0.26996,2.2517 -0.60005,4.61655 -0.99026,7.09458 0,0 -0.79458,5.72001 -0.79458,5.72001 0,0 -8.86882,0 -8.86882,0 0,0 3.29973,-19.54372 3.29973,-19.54372 0,0 -3.29973,-15.49774 -3.29973,-15.49774 0,0 8.79338,0 8.79338,0 0.1839,0.96434 0.49749,2.57235 0.93368,4.83347 0.33362,1.7259 0.64014,3.32212 0.9266,4.77688 0,0 1.9216,-9.61035 1.9216,-9.61035 z"
       style="fill:#0a3661;fill-opacity:1;fill-rule:nonzero;stroke:none;stroke-width:1.20719"
       id="path480" />
    <path
       d="m 75.239495,134.50719 c -3.246683,0 -5.881502,-2.63129 -5.881502,-5.88268 0,-3.24903 2.634819,-5.88032 5.881502,-5.88032 3.250208,0 5.883857,2.63129 5.883857,5.88032 0,3.25139 -2.633649,5.88268 -5.883857,5.88268 z m 15.480056,-5.87561 c 0,0 -0.08017,-1.54671 -0.08017,-1.54671 1.19776,-0.50928 2.374297,-1.11287 3.542577,-1.81785 -0.09549,-0.72855 -0.332448,-1.43117 -0.503386,-2.14559 -1.366343,-0.1839 -2.753896,-0.24285 -4.075441,-0.20749 -0.173291,-0.48098 -0.432644,-0.93367 -0.644855,-1.40052 -0.23341,-0.46449 -0.525779,-0.88889 -0.785143,-1.33686 0.837016,-1.01857 1.58208,-2.09608 2.284699,-3.25847 -0.419679,-0.60359 -0.952543,-1.10816 -1.438243,-1.65752 -1.293248,0.47391 -2.546417,1.061 -3.700549,1.70703 -0.380783,-0.34423 -0.820514,-0.62717 -1.227239,-0.94311 -0.417325,-0.29944 -0.872374,-0.54465 -1.306213,-0.8158 0.260535,-1.28971 0.424411,-2.59357 0.509288,-3.95401 -0.653113,-0.33717 -1.367514,-0.53757 -2.048923,-0.79693 -0.932505,1.01385 -1.765983,2.12437 -2.486288,3.23253 -0.497494,-0.13675 -1.012661,-0.17448 -1.521949,-0.26172 -0.509277,-0.0849 -1.025639,-0.0684 -1.541989,-0.10845 -0.365464,-1.29207 -0.825234,-2.49455 -1.379309,-3.74181 -0.730916,0.0189 -1.457112,0.12967 -2.180953,0.24757 -0.356024,1.31328 -0.580018,2.69023 -0.703803,4.01531 -0.503385,0.10845 -0.984377,0.29472 -1.468906,0.4692 -0.495128,0.16269 -0.949006,0.40318 -1.41585,0.62246 -0.921893,-0.96906 -1.907453,-1.84851 -2.96845,-2.66902 -0.640147,0.36074 -1.236667,0.78279 -1.815501,1.23784 0.297077,1.32271 0.735636,2.64072 1.251986,3.87384 -0.396102,0.33244 -0.73799,0.72149 -1.082219,1.10345 -0.36311,0.36545 -0.655467,0.79457 -0.965521,1.20482 -1.264952,-0.42912 -2.542868,-0.75212 -3.869133,-0.98791 -0.397285,0.61303 -0.725013,1.26849 -1.03625,1.93339 0.877106,1.03978 1.882694,2.00648 2.909515,2.86 -0.199234,0.47627 -0.319482,0.97612 -0.445621,1.48069 -0.147361,0.49277 -0.215736,1.00677 -0.290002,1.51134 -1.320362,0.21456 -2.614793,0.52579 -3.886819,0.93133 -0.04834,0.72855 -0.06837,1.45239 -0.01062,2.18566 1.280283,0.50929 2.56292,0.90068 3.897429,1.18126 0.07427,0.50692 0.142642,1.02092 0.290003,1.51606 0.126139,0.5022 0.246387,1.00441 0.445621,1.48069 -1.042141,0.78514 -2.094893,1.6811 -3.016786,2.62657 0.319483,0.65782 0.613022,1.33451 1.010308,1.94753 1.386382,-0.15325 2.690242,-0.39375 4.002346,-0.76864 0.310054,0.40791 0.602411,0.83938 0.965521,1.20484 0.344229,0.38196 0.688471,0.76864 1.082219,1.10344 -0.555258,1.1789 -1.072791,2.4521 -1.454758,3.72295 0.589446,0.43619 1.162389,0.8936 1.801354,1.25199 1.149423,-0.771 2.198638,-1.59386 3.185369,-2.53227 0.466844,0.21927 0.920722,0.45741 1.41585,0.61774 0.484529,0.1792 0.965521,0.36074 1.468906,0.47392 0.05541,1.30149 0.199234,2.67373 0.449159,3.97286 0.728561,0.10375 1.447683,0.25937 2.17977,0.2688 0.659004,-1.23549 1.206017,-2.42617 1.635135,-3.72295 0.516351,-0.0377 1.032713,-0.0236 1.541989,-0.10609 0.509289,-0.0896 1.024456,-0.12969 1.52195,-0.26172 0.65665,1.12938 1.404068,2.24225 2.245792,3.31741 0.69202,-0.24522 1.388736,-0.47864 2.058351,-0.77572 0.01183,-1.39581 -0.0778,-2.74211 -0.27822,-4.06011 0.433839,-0.27114 0.888888,-0.52107 1.306213,-0.8158 0.406725,-0.3183 0.846456,-0.59887 1.227239,-0.94312 1.104625,0.69319 2.28115,1.32273 3.528428,1.8886 0.495128,-0.53286 1.004416,-1.06101 1.461832,-1.63866 -0.643685,-1.23784 -1.34395,-2.38609 -2.136167,-3.46124 0.259364,-0.44562 0.551733,-0.87238 0.785143,-1.33451 0.212211,-0.47156 0.471563,-0.92189 0.644855,-1.40053 1.307396,0.099 2.639552,0.10847 4.002346,0.0306 0.193343,-0.70732 0.393761,-1.41466 0.535219,-2.13143 -1.143521,-0.80165 -2.312984,-1.49484 -3.501315,-2.07485 0,0 0.08017,-1.54436 0.08017,-1.54436 z"
       style="fill:#ffffff;fill-opacity:1;fill-rule:nonzero;stroke:none;stroke-width:1.20719"
       id="path482" />
    <path
       d="m 97.376313,174.64755 c 0,0 -3.227815,27.82603 -3.227815,27.82603 0,0 -8.966675,0 -8.966675,0 -0.828759,-4.26996 -1.560846,-9.15294 -2.202164,-14.63951 -0.32774,2.37193 -1.004429,7.25256 -2.02653,14.63951 0,0 -8.917145,0 -8.917145,0 0,0 -3.244317,-27.82603 -3.244317,-27.82603 0,0 7.008521,0 7.008521,0 0,0 0.749772,9.72057 0.749772,9.72057 0,0 0.729745,9.40994 0.729745,9.40994 0.286466,-4.86884 0.967863,-11.2443 2.034763,-19.13051 0,0 7.431749,0 7.431749,0 0.06837,0.82876 0.32891,3.89212 0.772177,9.19714 0,0 0.891243,10.62184 0.891243,10.62184 0.38904,-6.75742 1.042141,-13.36631 1.959326,-19.81898 0,0 7.00735,0 7.00735,0 z"
       style="fill:#000000;fill-opacity:1;fill-rule:nonzero;stroke:none;stroke-width:1.20719"
       id="path446-8" />
    <path
       d="m 107.79066,174.64755 c 0,0 0,27.82603 0,27.82603 0,0 -7.21248,0 -7.21248,0 0,0 0,-27.82603 0,-27.82603 z"
       style="fill:#000000;fill-opacity:1;fill-rule:nonzero;stroke:none;stroke-width:1.20719"
       id="path448-2" />
    <path
       d="m 128.617,174.64755 c 0,0 0,27.82603 0,27.82603 0,0 -6.31887,0 -6.31887,0 0,0 -3.77718,-12.64482 -3.77718,-12.64482 0,0 0,12.64482 0,12.64482 0,0 -6.05008,0 -6.05008,0 0,0 0,-27.82603 0,-27.82603 0,0 6.05008,0 6.05008,0 0,0 4.05068,12.53341 4.05068,12.53341 0,0 0,-12.53341 0,-12.53341 z"
       style="fill:#000000;fill-opacity:1;fill-rule:nonzero;stroke:none;stroke-width:1.20719"
       id="path450-4" />
    <path
       d="m 140.49082,179.38847 c 0,0 0,18.34595 0,18.34595 1.06926,0 1.72591,-0.20512 1.9723,-0.62481 0.24403,-0.41969 0.36663,-1.55849 0.36663,-3.42115 0,0 0,-10.83404 0,-10.83404 0,-1.26378 -0.0413,-2.07485 -0.1226,-2.43324 -0.0825,-0.35367 -0.26879,-0.61537 -0.56352,-0.77807 -0.29354,-0.16975 -0.8429,-0.25464 -1.65281,-0.25464 z m -7.21247,-4.74092 c 0,0 5.42056,0 5.42056,0 3.49306,0 5.85792,0.16387 7.09223,0.48335 1.23076,0.32065 2.16916,0.8488 2.81048,1.58325 0.6425,0.73151 1.03978,1.54494 1.206,2.44326 0.15562,0.90539 0.23461,2.67137 0.23461,5.30502 0,0 0,9.75181 0,9.75181 0,2.49454 -0.11436,4.16386 -0.34895,5.00323 -0.23815,0.84408 -0.64604,1.50663 -1.23077,1.98054 -0.58355,0.47628 -1.30621,0.80401 -2.16445,0.99735 -0.86177,0.18862 -2.15738,0.27822 -3.88446,0.27822 0,0 -9.13525,0 -9.13525,0 0,0 0,-27.82603 0,-27.82603 z"
       style="fill:#000000;fill-opacity:1;fill-rule:nonzero;stroke:none;stroke-width:1.20719"
       id="path452-5" />
    <path
       d="m 163.82585,181.84764 c 0,-1.29206 -0.0707,-2.11258 -0.21927,-2.4686 -0.14619,-0.35838 -0.45033,-0.53757 -0.91011,-0.53757 -0.39375,0 -0.69201,0.14617 -0.89478,0.43382 -0.20631,0.29002 -0.31004,1.14589 -0.31004,2.57235 0,0 0,12.90182 0,12.90182 0,1.60565 0.0684,2.59592 0.20512,2.97081 0.1344,0.3796 0.45033,0.56587 0.94547,0.56587 0.50575,0 0.8323,-0.21455 0.97377,-0.65074 0.14147,-0.42677 0.20984,-1.45948 0.20984,-3.08871 z m 7.21483,9.08692 c 0,2.79163 -0.0636,4.76745 -0.19687,5.92512 -0.13322,1.16475 -0.54347,2.2234 -1.23785,3.18302 -0.69436,0.95962 -1.63512,1.69996 -2.81401,2.21396 -1.18242,0.50928 -2.56055,0.76864 -4.13084,0.76864 -1.49131,0 -2.83407,-0.2405 -4.01768,-0.7262 -1.19303,-0.4857 -2.14557,-1.21426 -2.86589,-2.18803 -0.72383,-0.97376 -1.15649,-2.0277 -1.2956,-3.17358 -0.13675,-1.14352 -0.19923,-3.14293 -0.19923,-6.00293 0,0 0,-4.74622 0,-4.74622 0,-2.78927 0.0601,-4.76274 0.19452,-5.92513 0.13086,-1.15767 0.54229,-2.22103 1.23783,-3.18065 0.69319,-0.95786 1.63159,-1.69348 2.81521,-2.21103 1.17888,-0.51635 2.55583,-0.7757 4.13084,-0.7757 1.49247,0 2.82816,0.24874 4.01766,0.73209 1.18834,0.48925 2.14206,1.21191 2.86709,2.18862 0.72147,0.97141 1.15412,2.03005 1.29088,3.16651 0.14029,1.14824 0.20395,3.14765 0.20395,6.00529 0,0 0,4.74623 -1e-5,4.74622 z"
       style="fill:#000000;fill-opacity:1;fill-rule:nonzero;stroke:none;stroke-width:1.20719"
       id="path454-5" />
    <path
       d="m 202.67042,174.64755 c 0,0 -3.22545,27.82603 -3.22545,27.82603 0,0 -8.96903,0 -8.96903,0 -0.82405,-4.26996 -1.55849,-9.15294 -2.1951,-14.63951 -0.3301,2.37193 -1.0056,7.25256 -2.03006,14.63951 0,0 -8.91479,0 -8.91479,0 0,0 -3.24431,-27.82603 -3.24431,-27.82603 0,0 7.00498,0 7.00498,0 0,0 0.74977,9.72057 0.74977,9.72057 0,0 0.73328,9.40994 0.73328,9.40994 0.28529,-4.86884 0.96551,-11.2443 2.03713,-19.13051 0,0 7.43175,0 7.43175,0 0.066,0.82876 0.32655,3.89212 0.771,9.19714 0,0 0.8877,10.62184 0.8877,10.62184 0.3902,-6.75742 1.04568,-13.36631 1.95814,-19.81898 0,0 7.00498,0 7.00499,0 z"
       style="fill:#000000;fill-opacity:1;fill-rule:nonzero;stroke:none;stroke-width:1.20719"
       id="path456-1" />
    <path
       d="m 130.91703,239.37532 c -3.24668,0 -5.8815,-2.63129 -5.8815,-5.88268 0,-3.24903 2.63482,-5.88032 5.8815,-5.88032 3.25021,0 5.88386,2.63129 5.88386,5.88032 0,3.25139 -2.63365,5.88268 -5.88386,5.88268 z m 15.48006,-5.87561 c 0,0 -0.0802,-1.54671 -0.0802,-1.54671 1.19776,-0.50928 2.37429,-1.11287 3.54257,-1.81785 -0.0955,-0.72855 -0.33244,-1.43117 -0.50338,-2.14559 -1.36635,-0.1839 -2.7539,-0.24285 -4.07544,-0.20749 -0.1733,-0.48098 -0.43265,-0.93367 -0.64486,-1.40052 -0.23341,-0.46449 -0.52578,-0.88889 -0.78514,-1.33686 0.83701,-1.01857 1.58208,-2.09608 2.2847,-3.25847 -0.41968,-0.60359 -0.95255,-1.10816 -1.43825,-1.65752 -1.29324,0.47391 -2.54641,1.061 -3.70055,1.70703 -0.38078,-0.34423 -0.82051,-0.62717 -1.22723,-0.94311 -0.41733,-0.29944 -0.87238,-0.54465 -1.30622,-0.8158 0.26054,-1.28971 0.42441,-2.59357 0.50929,-3.95401 -0.65311,-0.33717 -1.36751,-0.53757 -2.04892,-0.79693 -0.93251,1.01385 -1.76599,2.12437 -2.48629,3.23253 -0.49749,-0.13675 -1.01266,-0.17448 -1.52195,-0.26172 -0.50928,-0.0849 -1.02564,-0.0684 -1.54199,-0.10845 -0.36546,-1.29207 -0.82523,-2.49455 -1.37931,-3.74181 -0.73091,0.0189 -1.45711,0.12967 -2.18095,0.24757 -0.35602,1.31328 -0.58002,2.69023 -0.7038,4.01531 -0.50339,0.10845 -0.98438,0.29472 -1.46891,0.4692 -0.49513,0.16269 -0.94901,0.40318 -1.41585,0.62246 -0.92189,-0.96906 -1.90745,-1.84851 -2.96845,-2.66902 -0.64015,0.36074 -1.23667,0.78279 -1.8155,1.23784 0.29708,1.32271 0.73564,2.64072 1.25199,3.87384 -0.39611,0.33244 -0.73799,0.72149 -1.08222,1.10345 -0.36311,0.36545 -0.65547,0.79457 -0.96552,1.20482 -1.26496,-0.42912 -2.54287,-0.75212 -3.86914,-0.98791 -0.39728,0.61303 -0.72501,1.26849 -1.03625,1.93339 0.87711,1.03978 1.8827,2.00648 2.90952,2.86 -0.19924,0.47627 -0.31948,0.97612 -0.44562,1.48069 -0.14736,0.49277 -0.21574,1.00677 -0.29001,1.51134 -1.32036,0.21456 -2.61479,0.52579 -3.88681,0.93133 -0.0483,0.72855 -0.0684,1.45239 -0.0106,2.18566 1.28028,0.50929 2.56292,0.90068 3.89742,1.18126 0.0743,0.50692 0.14265,1.02092 0.29001,1.51606 0.12614,0.5022 0.24638,1.00441 0.44562,1.48069 -1.04214,0.78514 -2.09489,1.6811 -3.01679,2.62657 0.31949,0.65782 0.61302,1.33451 1.01031,1.94753 1.38638,-0.15325 2.69024,-0.39375 4.00235,-0.76864 0.31005,0.40791 0.60241,0.83938 0.96552,1.20484 0.34423,0.38196 0.68847,0.76864 1.08222,1.10344 -0.55526,1.1789 -1.07279,2.4521 -1.45476,3.72295 0.58944,0.43619 1.16239,0.8936 1.80135,1.25199 1.14943,-0.771 2.19864,-1.59386 3.18537,-2.53227 0.46685,0.21927 0.92072,0.45741 1.41585,0.61774 0.48453,0.1792 0.96552,0.36074 1.46891,0.47392 0.0554,1.30149 0.19923,2.67373 0.44916,3.97286 0.72856,0.10375 1.44768,0.25937 2.17977,0.2688 0.659,-1.23549 1.20601,-2.42617 1.63513,-3.72295 0.51635,-0.0377 1.03271,-0.0236 1.54199,-0.10609 0.50929,-0.0896 1.02446,-0.12969 1.52195,-0.26172 0.65665,1.12938 1.40407,2.24225 2.24579,3.31741 0.69202,-0.24522 1.38874,-0.47864 2.05835,-0.77572 0.0118,-1.39581 -0.0778,-2.74211 -0.27822,-4.06011 0.43384,-0.27114 0.88889,-0.52107 1.30622,-0.8158 0.40672,-0.3183 0.84645,-0.59887 1.22724,-0.94312 1.10462,0.69319 2.28115,1.32273 3.52842,1.8886 0.49513,-0.53286 1.00442,-1.06101 1.46184,-1.63866 -0.64369,-1.23784 -1.34395,-2.38609 -2.13617,-3.46124 0.25936,-0.44562 0.55173,-0.87238 0.78514,-1.33451 0.21221,-0.47156 0.47156,-0.92189 0.64486,-1.40053 1.30739,0.099 2.63955,0.10847 4.00234,0.0306 0.19335,-0.70732 0.39376,-1.41466 0.53522,-2.13143 -1.14352,-0.80165 -2.31298,-1.49484 -3.50131,-2.07485 0,0 0.0802,-1.54436 0.0802,-1.54436 z"
       style="fill:#000000;fill-opacity:1;fill-rule:nonzero;stroke:none;stroke-width:1.20719"
       id="path482-7" />
  </g>
</svg>
