<?xml version="1.0" encoding="UTF-8" standalone="no"?>
<svg
   viewBox="0 0 120 120"
   width="120"
   height="120"
   version="1.1"
   id="svg7"
   sodipodi:docname="logo.svg"
   inkscape:version="1.4.2 (f4327f4, 2025-05-13)"
   xmlns:inkscape="http://www.inkscape.org/namespaces/inkscape"
   xmlns:sodipodi="http://sodipodi.sourceforge.net/DTD/sodipodi-0.dtd"
   xmlns="http://www.w3.org/2000/svg"
   xmlns:svg="http://www.w3.org/2000/svg">
  <defs
     id="defs7">
    <clipPath
       clipPathUnits="userSpaceOnUse"
       id="clipPath436">
      <path
         d="m 51.22656,132.18895 h 79.18262 V 52.56836 H 51.22656 Z"
         id="path434" />
    </clipPath>
    <clipPath
       clipPathUnits="userSpaceOnUse"
       id="clipPath464">
      <path
         d="M 11.44336,110.20459 H 58.4668 V 45.19531 H 11.44336 Z"
         id="path462" />
    </clipPath>
  </defs>
  <sodipodi:namedview
     id="namedview7"
     pagecolor="#ffffff"
     bordercolor="#000000"
     borderopacity="0.25"
     inkscape:showpageshadow="2"
     inkscape:pageopacity="0.0"
     inkscape:pagecheckerboard="0"
     inkscape:deskcolor="#d1d1d1"
     inkscape:zoom="2.3776466"
     inkscape:cx="158.77044"
     inkscape:cy="93.579931"
     inkscape:window-width="1920"
     inkscape:window-height="1009"
     inkscape:window-x="-8"
     inkscape:window-y="-8"
     inkscape:window-maximized="1"
     inkscape:current-layer="svg7" />
  <g
     id="g426"
     transform="matrix(0.93658136,0,0,0.93658136,-7.5335523,127.08653)">
    <path
       d="m 132.76953,-51.81445 c 0,0 -121.20508,0 -121.20508,0 0,0 0,-80.73682 0,-80.73682 0,0 121.20508,0 121.20508,0 0,0 0,80.73682 0,80.73682 z"
       style="fill:#0a3661;fill-opacity:1;fill-rule:nonzero;stroke:none"
       id="path428" />
    <g
       id="g430"
       transform="scale(1,-1)">
      <g
         id="g432" />
      <g
         id="g444">
        <g
           clip-path="url(#clipPath436)"
           opacity="0.3"
           id="g442">
          <g
             transform="scale(1,-1)"
             id="g440">
            <path
               d="m 90.81641,-80.07764 c -6.79004,0 -12.29883,-5.50586 -12.29883,-12.29687 0,-6.7959 5.50879,-12.30176 12.29883,-12.30176 6.79394,0 12.2998,5.50586 12.2998,12.30176 0,6.79101 -5.50586,12.29687 -12.2998,12.29687 z m 32.35742,-12.2832 c 0,0 -0.16504,-3.23145 -0.16504,-3.23145 2.50293,-1.07128 4.97168,-2.33886 7.40039,-3.80468 -0.19727,-1.52149 -0.68848,-2.98926 -1.04688,-4.47754 -2.86035,-0.38477 -5.75488,-0.51367 -8.51562,-0.43848 -0.36621,-1.01172 -0.90723,-1.9541 -1.35449,-2.93066 -0.48438,-0.96485 -1.09766,-1.85938 -1.64063,-2.78711 1.7461,-2.1377 3.30567,-4.38867 4.7793,-6.82227 -0.87891,-1.25976 -1.99902,-2.31543 -3.00586,-3.46289 -2.70898,0.98828 -5.33105,2.22071 -7.7373,3.57129 -0.80176,-0.7207 -1.70997,-1.31445 -2.56348,-1.97461 -0.87891,-0.61719 -1.82617,-1.13867 -2.74121,-1.70996 0.55371,-2.69141 0.89746,-5.42187 1.06933,-8.25684 -1.36328,-0.70312 -2.85156,-1.12597 -4.28222,-1.6748 -1.93946,2.13184 -3.69336,4.44629 -5.19239,6.75977 -1.04296,-0.27832 -2.12402,-0.3584 -3.18457,-0.5459 -1.06543,-0.17188 -2.15332,-0.14356 -3.22461,-0.22461 -0.76367,-2.70801 -1.72656,-5.21973 -2.88574,-7.81738 -1.53027,0.0322 -3.04687,0.26953 -4.55761,0.51464 -0.74317,2.73536 -1.21582,5.61719 -1.46778,8.38965 -1.05664,0.22949 -2.06445,0.61133 -3.07324,0.99024 -1.03027,0.33203 -1.99023,0.83105 -2.96191,1.29882 -1.92774,-2.02343 -3.98438,-3.86718 -6.20508,-5.58203 -1.33301,0.76075 -2.58399,1.63868 -3.79297,2.58203 0.62695,2.77247 1.54297,5.52442 2.61621,8.10352 -0.82813,0.69727 -1.54395,1.50195 -2.26367,2.30566 -0.75488,0.76954 -1.37012,1.66114 -2.01758,2.52149 -2.64941,-0.89942 -5.31445,-1.57324 -8.08594,-2.07227 -0.83105,1.28711 -1.52246,2.6543 -2.16308,4.05078 1.83398,2.167 3.93066,4.18848 6.07519,5.97168 -0.41308,0.99805 -0.66894,2.0459 -0.93066,3.09278 -0.31055,1.03515 -0.4502,2.10742 -0.61133,3.17187 -2.75293,0.43946 -5.46484,1.08594 -8.11621,1.93555 -0.10449,1.52441 -0.14942,3.05176 -0.02735,4.57422 2.67286,1.06152 5.36133,1.88769 8.14356,2.46777 0.16113,1.06055 0.30078,2.13477 0.61133,3.16992 0.26172,1.04785 0.51758,2.09571 0.93066,3.09668 -2.17383,1.63965 -4.3789,3.51221 -6.30469,5.48877 0.667,1.37891 1.28223,2.78711 2.12012,4.07617 2.88477,-0.32421 5.62012,-0.82421 8.3584,-1.61914 0.64746,0.86133 1.2627,1.75196 2.01758,2.52344 0.71972,0.80078 1.43554,1.60742 2.26367,2.30469 -1.16699,2.4668 -2.24121,5.13867 -3.03711,7.78515 1.22461,0.91602 2.42481,1.86719 3.7627,2.62696 2.40429,-1.61524 4.59765,-3.33985 6.65625,-5.30664 0.97168,0.46679 1.93164,0.96289 2.96191,1.29297 1.00879,0.38281 2.0166,0.76562 3.07324,0.99414 0.11621,2.71679 0.41211,5.58984 0.94141,8.30859 1.51758,0.21094 3.02344,0.54102 4.55469,0.5625 1.37109,-2.58398 2.51171,-5.08008 3.41503,-7.78711 1.0752,-0.08008 2.15918,-0.05078 3.22461,-0.22266 1.06055,-0.1875 2.14161,-0.26953 3.18457,-0.54492 1.36915,2.36328 2.93555,4.68164 4.68946,6.92774 1.44336,-0.50391 2.90625,-0.9961 4.30371,-1.61524 0.0225,-2.92187 -0.16309,-5.73242 -0.58789,-8.48437 0.91504,-0.57227 1.8623,-1.09571 2.74121,-1.70899 0.85351,-0.66211 1.76172,-1.2539 2.56348,-1.97656 2.30761,1.45508 4.7705,2.77734 7.37011,3.95508 1.03907,-1.12109 2.10742,-2.22266 3.05274,-3.42188 -1.34375,-2.59961 -2.79883,-4.99414 -4.45899,-7.24414 0.54297,-0.92968 1.15625,-1.82422 1.64063,-2.78515 0.44726,-0.98096 0.98828,-1.92334 1.35449,-2.93408 2.71973,0.21093 5.51758,0.24023 8.36426,0.07031 0.40429,-1.47754 0.82422,-2.95996 1.11914,-4.46192 -2.39649,-1.67675 -4.83789,-3.12011 -7.32129,-4.33007 0,0 0.16504,-3.22852 0.16504,-3.22852 z"
               style="fill:#ffffff;fill-opacity:1;fill-rule:nonzero;stroke:none"
               id="path438" />
          </g>
        </g>
      </g>
    </g>
    <path
       d="m 39.7168,-79.9624 c 0,0 -2.67383,23.05029 -2.67383,23.05029 0,0 -7.42774,0 -7.42774,0 -0.68652,-3.53711 -1.29296,-7.58203 -1.82421,-12.12695 -0.27149,1.96484 -0.83204,6.00781 -1.67872,12.12695 0,0 -7.38671,0 -7.38671,0 0,0 -2.6875,-23.05029 -2.6875,-23.05029 0,0 5.80566,0 5.80566,0 0,0 0.62109,8.05224 0.62109,8.05224 0,0 0.6045,7.79493 0.6045,7.79493 0.2373,-4.03321 0.80175,-9.31446 1.68554,-15.84717 0,0 6.15625,0 6.15625,0 0.05664,0.68652 0.27246,3.22412 0.63965,7.61865 0,0 0.73828,8.79883 0.73828,8.79883 0.32227,-5.59766 0.86328,-11.07227 1.62305,-16.41748 0,0 5.80469,0 5.80469,0 z"
       style="fill:#ffffff;fill-opacity:1;fill-rule:nonzero;stroke:none"
       id="path446" />
    <path
       d="m 48.34375,-79.9624 c 0,0 0,23.05029 0,23.05029 0,0 -5.97461,0 -5.97461,0 0,0 0,-23.05029 0,-23.05029 z"
       style="fill:#ffffff;fill-opacity:1;fill-rule:nonzero;stroke:none"
       id="path448" />
    <path
       d="m 65.5957,-79.9624 c 0,0 0,23.05029 0,23.05029 0,0 -5.23437,0 -5.23437,0 0,0 -3.12891,-10.47461 -3.12891,-10.47461 0,0 0,10.47461 0,10.47461 0,0 -5.01172,0 -5.01172,0 0,0 0,-23.05029 0,-23.05029 0,0 5.01172,0 5.01172,0 0,0 3.35547,10.38232 3.35547,10.38232 0,0 0,-10.38232 0,-10.38232 z"
       style="fill:#ffffff;fill-opacity:1;fill-rule:nonzero;stroke:none"
       id="path450" />
    <path
       d="m 75.43164,-76.03516 c 0,0 0,15.19727 0,15.19727 0.88574,0 1.42969,-0.16992 1.63379,-0.51758 0.20215,-0.34766 0.30371,-1.29101 0.30371,-2.83398 0,0 0,-8.97461 0,-8.97461 0,-1.04688 -0.03418,-1.71875 -0.10156,-2.01563 -0.06836,-0.29297 -0.22266,-0.50976 -0.4668,-0.64453 -0.24316,-0.14062 -0.69824,-0.21094 -1.36914,-0.21094 z m -5.97461,-3.92724 c 0,0 4.49024,0 4.49024,0 2.89355,0 4.85253,0.13574 5.875,0.40039 1.01953,0.26562 1.79687,0.70312 2.32812,1.31152 0.53223,0.60596 0.86133,1.27979 0.99902,2.02393 0.12891,0.75 0.19434,2.21289 0.19434,4.39453 0,0 0,8.07812 0,8.07812 0,2.06641 -0.09473,3.44922 -0.28906,4.14453 -0.19727,0.69922 -0.53516,1.24805 -1.01953,1.64063 -0.4834,0.39453 -1.08203,0.66602 -1.79297,0.82617 -0.71387,0.15625 -1.78711,0.23047 -3.21778,0.23047 0,0 -7.56738,0 -7.56738,0 0,0 0,-23.05029 0,-23.05029 z"
       style="fill:#ffffff;fill-opacity:1;fill-rule:nonzero;stroke:none"
       id="path452" />
    <path
       d="m 94.76172,-73.99805 c 0,-1.07031 -0.05859,-1.75 -0.18164,-2.04492 -0.1211,-0.29687 -0.37305,-0.44531 -0.75391,-0.44531 -0.32617,0 -0.57324,0.12109 -0.74121,0.35937 -0.1709,0.24024 -0.25683,0.94922 -0.25683,2.13086 0,0 0,10.6875 0,10.6875 0,1.33008 0.05664,2.15039 0.16992,2.46094 0.11133,0.31445 0.37304,0.46875 0.7832,0.46875 0.41895,0 0.68945,-0.17773 0.80664,-0.53906 0.11719,-0.35352 0.17383,-1.20899 0.17383,-2.5586 0,0 0,-10.51953 0,-10.51953 z m 5.97656,7.52735 c 0,2.3125 -0.0527,3.94922 -0.16308,4.9082 -0.11036,0.96484 -0.4502,1.8418 -1.0254,2.63672 -0.57519,0.79492 -1.35449,1.4082 -2.33105,1.83398 -0.97949,0.42188 -2.12109,0.63672 -3.42187,0.63672 -1.23536,0 -2.34766,-0.19922 -3.32813,-0.60156 -0.98828,-0.40234 -1.77734,-1.00586 -2.37402,-1.8125 -0.59961,-0.80664 -0.95801,-1.67969 -1.07325,-2.62891 -0.11328,-0.94726 -0.16503,-2.60351 -0.16503,-4.97265 0,0 0,-3.93164 0,-3.93164 0,-2.31055 0.0498,-3.94532 0.16113,-4.90821 0.1084,-0.95898 0.44922,-1.83984 1.02539,-2.63476 0.57422,-0.79346 1.35156,-1.40283 2.33203,-1.83155 0.97656,-0.42773 2.11719,-0.64257 3.42188,-0.64257 1.23632,0 2.34277,0.20605 3.32812,0.60644 0.98438,0.40528 1.77441,1.00391 2.375,1.81299 0.59766,0.80469 0.95605,1.68164 1.06934,2.62305 0.11621,0.95117 0.16894,2.60742 0.16894,4.97461 0,0 0,3.93164 0,3.93164 z"
       style="fill:#ffffff;fill-opacity:1;fill-rule:nonzero;stroke:none"
       id="path454" />
    <path
       d="m 126.93945,-79.9624 c 0,0 -2.67187,23.05029 -2.67187,23.05029 0,0 -7.42969,0 -7.42969,0 -0.68262,-3.53711 -1.29101,-7.58203 -1.81836,-12.12695 -0.27344,1.96484 -0.83301,6.00781 -1.68164,12.12695 0,0 -7.38476,0 -7.38476,0 0,0 -2.6875,-23.05029 -2.6875,-23.05029 0,0 5.80273,0 5.80273,0 0,0 0.62109,8.05224 0.62109,8.05224 0,0 0.60743,7.79493 0.60743,7.79493 0.23632,-4.03321 0.7998,-9.31446 1.6875,-15.84717 0,0 6.15625,0 6.15625,0 0.0547,0.68652 0.2705,3.22412 0.63867,7.61865 0,0 0.73535,8.79883 0.73535,8.79883 0.32324,-5.59766 0.86621,-11.07227 1.62207,-16.41748 0,0 5.80273,0 5.80273,0 z"
       style="fill:#ffffff;fill-opacity:1;fill-rule:nonzero;stroke:none"
       id="path456" />
    <g
       id="g458"
       transform="scale(1,-1)">
      <g
         id="g460" />
      <g
         id="g472">
        <g
           clip-path="url(#clipPath464)"
           opacity="0.5"
           id="g470">
          <g
             transform="scale(1,-1)"
             id="g468">
            <path
               d="m 26.13867,-67.6582 c -5.54394,0 -10.04101,-4.49805 -10.04101,-10.04297 0,-5.54639 4.49707,-10.04053 10.04101,-10.04053 5.54492,0 10.04297,4.49414 10.04297,10.04053 0,5.54492 -4.49805,10.04297 -10.04297,10.04297 z m 26.4209,-10.0293 c 0,0 -0.13769,-2.63721 -0.13769,-2.63721 2.04785,-0.87695 4.06054,-1.91015 6.04492,-3.10742 -0.16309,-1.24219 -0.56446,-2.44141 -0.85938,-3.65625 -2.33301,-0.31641 -4.69922,-0.42383 -6.94922,-0.3584 -0.30078,-0.8291 -0.74023,-1.59668 -1.10547,-2.39648 -0.39746,-0.78711 -0.89648,-1.5166 -1.33886,-2.27344 1.4248,-1.74609 2.69629,-3.58203 3.89941,-5.57129 -0.71582,-1.02637 -1.63086,-1.88867 -2.4541,-2.82812 -2.20898,0.80761 -4.35254,1.81347 -6.31738,2.91406 -0.6543,-0.58496 -1.39551,-1.06836 -2.08985,-1.6084 -0.71972,-0.50586 -1.49414,-0.92871 -2.24023,-1.39355 0.45312,-2.19825 0.73047,-4.42774 0.87305,-6.74512 -1.11329,-0.57422 -2.33106,-0.91992 -3.4961,-1.36719 -1.58398,1.74024 -3.01367,3.62988 -4.24023,5.51953 -0.84961,-0.22949 -1.73828,-0.29004 -2.59864,-0.44629 -0.87011,-0.1416 -1.75878,-0.11523 -2.63574,-0.18164 -0.62109,-2.21289 -1.40625,-4.26172 -2.35351,-6.37988 -1.24903,0.0225 -2.48828,0.21582 -3.72266,0.41406 -0.60547,2.23731 -0.99316,4.58985 -1.19726,6.85254 -0.86524,0.18555 -1.6875,0.49903 -2.5127,0.80762 -0.84082,0.27148 -1.62207,0.67871 -2.41699,1.06152 -1.03174,-1.08545 -2.13281,-2.08838 -3.26758,-3.05908 0,0 0,52.59082 0,52.59082 1.13965,-0.86719 2.229,-1.77832 3.26758,-2.77344 0.79492,0.38086 1.57617,0.78907 2.41699,1.0625 0.8252,0.30664 1.64746,0.61914 2.5127,0.80664 0.09375,2.21875 0.33593,4.56836 0.76855,6.78321 1.2373,0.17187 2.46777,0.4414 3.71582,0.46289 1.12109,-2.11133 2.05078,-4.15039 2.78906,-6.35742 0.87696,-0.07032 1.76563,-0.04493 2.63574,-0.1836 0.86036,-0.1543 1.74903,-0.21875 2.59864,-0.44726 1.11719,1.92968 2.39648,3.82226 3.82812,5.6582 1.17871,-0.41406 2.37305,-0.81445 3.51563,-1.32031 0.01562,-2.38868 -0.13574,-4.67969 -0.48047,-6.92578 0.74609,-0.47071 1.52051,-0.89258 2.24023,-1.4004 0.69434,-0.53515 1.43555,-1.01953 2.08985,-1.60937 1.88476,1.1875 3.89453,2.26953 6.01855,3.22852 0.84961,-0.91211 1.71973,-1.81446 2.49219,-2.79297 -1.09473,-2.12305 -2.28223,-4.07813 -3.63867,-5.91797 0.44238,-0.75977 0.9414,-1.48828 1.33886,-2.27344 0.36524,-0.80078 0.80469,-1.56836 1.10547,-2.39258 2.22071,0.16992 4.50293,0.19336 6.82813,0.05469 0.33398,-1.20313 0.6748,-2.41602 0.91211,-3.64063 -1.95508,-1.37109 -3.94727,-2.54882 -5.97656,-3.5371 0,0 0.13769,-2.63477 0.13769,-2.63477 z"
               style="fill:#ffffff;fill-opacity:1;fill-rule:nonzero;stroke:none"
               id="path466" />
          </g>
        </g>
      </g>
    </g>
    <path
       d="m 132.76953,-10.70703 c 0,0 -121.20508,0 -121.20508,0 0,0 0,-41.39844 0,-41.39844 0,0 121.20508,0 121.20508,0 0,0 0,41.39844 0,41.39844 z"
       style="fill:#799f18;fill-opacity:1;fill-rule:nonzero;stroke:none"
       id="path474" />
    <path
       d="m 50.58398,-45.79883 c 0,0 -3.37109,29.02735 -3.37109,29.02735 0,0 -9.38672,0 -9.38672,0 -0.86328,-4.45704 -1.6289,-9.54297 -2.29687,-15.25977 -0.33887,2.45508 -1.04297,7.54297 -2.10938,15.25977 0,0 -9.33203,0 -9.33203,0 0,0 -3.38672,-29.02735 -3.38672,-29.02735 0,0 7.3418,0 7.3418,0 0,0 0.7666,10.13477 0.7666,10.13477 0,0 0.74219,9.84179 0.74219,9.84179 0.31738,-5.10156 1.0332,-11.76171 2.14355,-19.97656 0,0 7.78516,0 7.78516,0 0.07031,0.86133 0.33203,4.05469 0.7793,9.58594 0,0 0.90234,11.07226 0.90234,11.07226 0.44434,-7.05078 1.13477,-13.9375 2.0791,-20.6582 0,0 7.34277,0 7.34277,0 z"
       style="fill:#0a3661;fill-opacity:1;fill-rule:nonzero;stroke:none"
       id="path476" />
    <path
       d="m 93.21777,-40.84766 c 0,0 0,6.48828 0,6.48828 0.83692,0 1.42871,-0.11328 1.76856,-0.35156 0.33789,-0.23242 0.50586,-0.99219 0.50586,-2.27929 0,0 0,-1.60157 0,-1.60157 0,-0.92773 -0.16406,-1.5332 -0.49024,-1.82226 -0.32617,-0.28711 -0.9209,-0.4336 -1.78418,-0.4336 z m -7.57129,-4.95117 c 0,0 5.33985,0 5.33985,0 3.55859,0 5.9707,0.13867 7.23047,0.41211 1.26269,0.2793 2.28906,0.97852 3.08203,2.10938 0.79492,1.1289 1.19433,2.93164 1.19433,5.41015 0,2.25977 -0.27832,3.77735 -0.84472,4.55469 -0.56055,0.7793 -1.66406,1.24609 -3.31641,1.40039 1.49414,0.37109 2.5,0.86914 3.01563,1.48633 0.51172,0.62305 0.83007,1.19336 0.95703,1.71094 0.12304,0.52148 0.18847,1.94921 0.18847,4.29101 0,0 0,7.65235 0,7.65235 0,0 -7.00097,0 -7.00097,0 0,0 0,-9.64844 0,-9.64844 0,-1.55274 -0.1211,-2.51367 -0.36426,-2.88281 -0.24512,-0.37305 -0.87988,-0.5586 -1.91016,-0.5586 0,0 0,13.08985 0,13.08985 0,0 -7.57129,0 -7.57129,0 0,0 0,-29.02735 0,-29.02735 z"
       style="fill:#0a3661;fill-opacity:1;fill-rule:nonzero;stroke:none"
       id="path478" />
    <path
       d="m 122.52344,-45.79883 c 0,0 -2.67578,12.83789 -2.67578,12.83789 0,0 4.04297,16.18946 4.04297,16.18946 0,0 -7.00098,0 -7.00098,0 -0.81348,-2.89258 -1.57324,-6.42969 -2.27442,-10.61524 -0.22363,1.86524 -0.49707,3.82422 -0.82031,5.87695 0,0 -0.6582,4.73829 -0.6582,4.73829 0,0 -7.34668,0 -7.34668,0 0,0 2.7334,-16.18946 2.7334,-16.18946 0,0 -2.7334,-12.83789 -2.7334,-12.83789 0,0 7.28418,0 7.28418,0 0.15234,0.79883 0.41211,2.13086 0.77344,4.00391 0.27636,1.42969 0.53027,2.75195 0.76757,3.95703 0,0 1.5918,-7.96094 1.5918,-7.96094 z"
       style="fill:#0a3661;fill-opacity:1;fill-rule:nonzero;stroke:none"
       id="path480" />
    <path
       d="m 67.50098,-26.34375 c -2.68946,0 -4.87207,-2.17969 -4.87207,-4.87305 0,-2.6914 2.18261,-4.87109 4.87207,-4.87109 2.69238,0 4.87402,2.17969 4.87402,4.87109 0,2.69336 -2.18164,4.87305 -4.87402,4.87305 z m 12.82324,-4.86719 c 0,0 -0.06641,-1.28125 -0.06641,-1.28125 0.99219,-0.42187 1.9668,-0.92187 2.93457,-1.50586 -0.0791,-0.60351 -0.27539,-1.18554 -0.41699,-1.77734 -1.13184,-0.15234 -2.28125,-0.20117 -3.37598,-0.17188 -0.14355,-0.39843 -0.35839,-0.77343 -0.53418,-1.16015 -0.19335,-0.38477 -0.43554,-0.73633 -0.65039,-1.10742 0.69336,-0.84375 1.31055,-1.73633 1.89258,-2.69922 -0.34765,-0.5 -0.78906,-0.91797 -1.1914,-1.37305 -1.07129,0.39258 -2.10938,0.87891 -3.06543,1.41406 -0.31543,-0.28515 -0.67969,-0.51953 -1.01661,-0.78125 -0.3457,-0.24804 -0.72265,-0.45117 -1.08203,-0.67578 0.21582,-1.06836 0.35157,-2.14844 0.42188,-3.27539 -0.54102,-0.2793 -1.13281,-0.44531 -1.69727,-0.66016 -0.77246,0.83985 -1.46289,1.75977 -2.05957,2.67774 -0.41211,-0.11328 -0.83886,-0.14453 -1.26074,-0.2168 -0.42187,-0.07031 -0.84961,-0.05664 -1.27734,-0.08984 -0.30274,-1.07031 -0.6836,-2.06641 -1.14258,-3.09961 -0.60547,0.01562 -1.20703,0.10742 -1.80664,0.20508 -0.29492,1.08789 -0.48047,2.22851 -0.58301,3.32617 -0.41699,0.08984 -0.81543,0.24414 -1.2168,0.38867 -0.41015,0.13477 -0.78613,0.33399 -1.17285,0.51563 -0.76367,-0.80274 -1.58008,-1.53125 -2.45898,-2.21094 -0.53028,0.29883 -1.02442,0.64844 -1.50391,1.02539 0.24609,1.0957 0.60938,2.1875 1.03711,3.20898 -0.32812,0.27539 -0.61133,0.59766 -0.89648,0.91407 -0.30079,0.30273 -0.54297,0.6582 -0.79981,0.99804 -1.04785,-0.35547 -2.10644,-0.62304 -3.20508,-0.81836 -0.3291,0.50782 -0.60058,1.05078 -0.8584,1.60157 0.72657,0.86132 1.55957,1.66211 2.41016,2.36914 -0.16504,0.39453 -0.26465,0.80859 -0.36914,1.22656 -0.12207,0.4082 -0.17871,0.83398 -0.24023,1.25195 -1.09375,0.17774 -2.16602,0.43555 -3.21973,0.77149 -0.04004,0.60351 -0.05664,1.20312 -0.0088,1.81054 1.06055,0.42188 2.12305,0.7461 3.22852,0.97852 0.06152,0.41992 0.11816,0.8457 0.24023,1.25586 0.10449,0.41601 0.2041,0.83203 0.36914,1.22656 -0.86328,0.65039 -1.73535,1.39258 -2.49902,2.17578 0.26465,0.54492 0.50781,1.10547 0.83691,1.61328 1.14844,-0.12695 2.22852,-0.32617 3.31543,-0.63672 0.25684,0.3379 0.49902,0.69532 0.79981,0.99805 0.28515,0.31641 0.57031,0.63672 0.89648,0.91406 -0.45996,0.97657 -0.88867,2.03125 -1.20508,3.08399 0.48828,0.36133 0.96289,0.74023 1.49219,1.03711 0.95215,-0.63867 1.82129,-1.32031 2.63867,-2.09766 0.38672,0.18164 0.7627,0.37891 1.17285,0.51172 0.40137,0.14844 0.79981,0.29883 1.2168,0.39258 0.0459,1.07812 0.16504,2.21484 0.37207,3.29101 0.60352,0.08594 1.19922,0.21485 1.80566,0.22266 0.5459,-1.02344 0.99903,-2.00977 1.3545,-3.08398 0.42773,-0.03125 0.85547,-0.01954 1.27734,-0.08789 0.42188,-0.07422 0.84863,-0.10743 1.26074,-0.2168 0.54395,0.93555 1.16309,1.85742 1.86035,2.74805 0.57325,-0.20313 1.15039,-0.39649 1.70508,-0.64258 0.0098,-1.15625 -0.06445,-2.27149 -0.23047,-3.36328 0.35938,-0.22461 0.73633,-0.43164 1.08203,-0.67579 0.33692,-0.26367 0.70118,-0.49609 1.01661,-0.78125 0.91504,0.57422 1.88964,1.09571 2.92285,1.56446 0.41015,-0.44141 0.83203,-0.87891 1.21094,-1.35742 -0.53321,-1.02539 -1.11329,-1.97657 -1.76954,-2.86719 0.21485,-0.36914 0.45704,-0.72266 0.65039,-1.10547 0.17579,-0.39063 0.39063,-0.76367 0.53418,-1.16016 1.08301,0.08203 2.18653,0.08985 3.31543,0.02539 0.16016,-0.58593 0.32618,-1.17187 0.44336,-1.76562 -0.94726,-0.66406 -1.91601,-1.23828 -2.90039,-1.71875 0,0 0.06641,-1.2793 0.06641,-1.2793 z"
       style="fill:#ffffff;fill-opacity:1;fill-rule:nonzero;stroke:none"
       id="path482" />
  </g>
</svg>
